{
  "source": "C:\\Users\\Peter\\Desktop\\stuff\\MIUN\\quantitative_research\\video_compression\\videos\\BVI-HD\\BVI-HD_CDVL_videos\\ORIG\\Fountain_1920x1080_50fps.mp4",
  "output": "C:\\Users\\Peter\\Desktop\\stuff\\MIUN\\quantitative_research\\video_compression\\compressed_videos\\BVI-HD\\vp9\\4\\Fountain_1920x1080_50fps_vp9.webm",
  "codec": "vp9",
  "ok": "Input #0, mov,mp4,m4a,3gp,3g2,mj2, from 'C:\\Users\\Peter\\Desktop\\stuff\\MIUN\\quantitative_research\\video_compression\\videos\\BVI-HD\\BVI-HD_CDVL_videos\\ORIG\\Fountain_1920x1080_50fps.mp4':\n  Metadata:\n    major_brand     : isom\n    minor_version   : 512\n    compatible_brands: isomiso2avc1mp41\n    encoder         : Lavf54.28.101\n  Duration: 00:00:05.00, start: 0.000000, bitrate: 603457 kb/s\n  Stream #0:0[0x1](und): Video: h264 (High 4:4:4 Predictive) (avc1 / 0x31637661), yuv420p(progressive), 1920x1080, 603453 kb/s, 50 fps, 50 tbr, 50 tbn (default)\n    Metadata:\n      handler_name    : VideoHandler\n      vendor_id       : [0][0][0][0]\n[out#0/webm @ 000001d74e509a00] Codec AVOption b:a (set bitrate (in bits/s)) has not been used for any stream. The most likely reason is either wrong type (e.g. a video option with no video streams) or that it is a private option of some decoder which was not actually used for any stream.\nStream mapping:\n  Stream #0:0 -> #0:0 (h264 (native) -> vp9 (libvpx-vp9))\nPress [q] to stop, [?] for help\n[libvpx-vp9 @ 000001d74f060a00] v1.15.2-100-g40561f514\nOutput #0, webm, to 'C:\\Users\\Peter\\Desktop\\stuff\\MIUN\\quantitative_research\\video_compression\\compressed_videos\\BVI-HD\\vp9\\4\\Fountain_1920x1080_50fps_vp9.webm':\n  Metadata:\n    major_brand     : isom\n    minor_version   : 512\n    compatible_brands: isomiso2avc1mp41\n    encoder         : Lavf62.3.100\n  Stream #0:0(und): Video: vp9, yuv420p(tv, progressive), 1920x1080, q=2-31, 4000 kb/s, 50 fps, 1k tbn (default)\n    Metadata:\n      encoder         : Lavc62.11.100 libvpx-vp9\n      handler_name    : VideoHandler\n      vendor_id       : [0][0][0][0]\n    Side data:\n      cpb: bitrate max/min/avg: 0/0/0 buffer size: 4000000 vbv_delay: N/A\nframe=    0 fps=0.0 q=0.0 size=       0KiB time=N/A bitrate=N/A speed=N/A elapsed=0:00:00.51    \nframe=    1 fps=0.8 q=20.0 size=       1KiB time=00:00:00.02 bitrate= 253.6kbits/s speed=0.0164x elapsed=0:00:01.21    \nframe=    6 fps=3.4 q=54.0 size=       1KiB time=00:00:00.12 bitrate=  42.3kbits/s speed=0.0687x elapsed=0:00:01.74    \nframe=   11 fps=4.8 q=51.0 size=       1KiB time=00:00:00.22 bitrate=  23.1kbits/s speed=0.096x elapsed=0:00:02.29    \nframe=   14 fps=4.9 q=51.0 size=       1KiB time=00:00:00.28 bitrate=  18.1kbits/s speed=0.0986x elapsed=0:00:02.83    \nframe=   18 fps=5.4 q=51.0 size=       1KiB time=00:00:00.36 bitrate=  14.1kbits/s speed=0.107x elapsed=0:00:03.35    \nframe=   22 fps=5.7 q=50.0 size=       1KiB time=00:00:00.44 bitrate=  11.5kbits/s speed=0.113x elapsed=0:00:03.88    \nframe=   25 fps=5.7 q=50.0 size=       1KiB time=00:00:00.50 bitrate=  10.1kbits/s speed=0.113x elapsed=0:00:04.41    \nframe=   29 fps=5.8 q=50.0 size=       1KiB time=00:00:00.58 bitrate=   8.7kbits/s speed=0.117x elapsed=0:00:04.96    \nframe=   32 fps=5.8 q=51.0 size=       1KiB time=00:00:00.64 bitrate=   7.9kbits/s speed=0.116x elapsed=0:00:05.49    \nframe=   36 fps=6.0 q=50.0 size=       1KiB time=00:00:00.72 bitrate=   7.0kbits/s speed=0.12x elapsed=0:00:06.02    \nframe=   39 fps=5.9 q=51.0 size=       1KiB time=00:00:00.78 bitrate=   6.5kbits/s speed=0.119x elapsed=0:00:06.57    \nframe=   42 fps=5.9 q=51.0 size=       1KiB time=00:00:00.84 bitrate=   6.0kbits/s speed=0.118x elapsed=0:00:07.11    \nframe=   45 fps=5.9 q=51.0 size=       1KiB time=00:00:00.90 bitrate=   5.6kbits/s speed=0.118x elapsed=0:00:07.63    \nframe=   48 fps=5.9 q=51.0 size=       1KiB time=00:00:00.96 bitrate=   5.3kbits/s speed=0.118x elapsed=0:00:08.17    \nframe=   51 fps=5.9 q=52.0 size=       1KiB time=00:00:01.02 bitrate=   5.0kbits/s speed=0.117x elapsed=0:00:08.69    \nframe=   55 fps=6.0 q=52.0 size=       1KiB time=00:00:01.10 bitrate=   4.6kbits/s speed=0.119x elapsed=0:00:09.21    \nframe=   57 fps=5.9 q=52.0 size=       1KiB time=00:00:01.14 bitrate=   4.4kbits/s speed=0.117x elapsed=0:00:09.74    \nframe=   61 fps=5.9 q=51.0 size=       1KiB time=00:00:01.22 bitrate=   4.2kbits/s speed=0.119x elapsed=0:00:10.28    \nframe=   64 fps=5.9 q=38.0 size=       1KiB time=00:00:01.28 bitrate=   4.0kbits/s speed=0.118x elapsed=0:00:10.81    \nframe=   68 fps=6.0 q=51.0 size=       1KiB time=00:00:01.36 bitrate=   3.7kbits/s speed=0.12x elapsed=0:00:11.36    \nframe=   70 fps=5.9 q=38.0 size=       1KiB time=00:00:01.40 bitrate=   3.6kbits/s speed=0.118x elapsed=0:00:11.88    \nframe=   74 fps=6.0 q=50.0 size=       1KiB time=00:00:01.48 bitrate=   3.4kbits/s speed=0.119x elapsed=0:00:12.40    \nframe=   77 fps=6.0 q=50.0 size=       1KiB time=00:00:01.54 bitrate=   3.3kbits/s speed=0.119x elapsed=0:00:12.92    \nframe=   81 fps=6.0 q=50.0 size=       1KiB time=00:00:01.62 bitrate=   3.1kbits/s speed=0.12x elapsed=0:00:13.46    \nframe=   84 fps=6.0 q=50.0 size=       1KiB time=00:00:01.68 bitrate=   3.0kbits/s speed=0.12x elapsed=0:00:14.01    \nframe=   87 fps=6.0 q=50.0 size=       1KiB time=00:00:01.74 bitrate=   2.9kbits/s speed=0.12x elapsed=0:00:14.54    \nframe=   90 fps=6.0 q=50.0 size=       1KiB time=00:00:01.80 bitrate=   2.8kbits/s speed=0.119x elapsed=0:00:15.06    \nframe=   93 fps=6.0 q=51.0 size=       1KiB time=00:00:01.86 bitrate=   2.7kbits/s speed=0.119x elapsed=0:00:15.59    \nframe=   97 fps=6.0 q=51.0 size=       1KiB time=00:00:01.94 bitrate=   2.6kbits/s speed=0.12x elapsed=0:00:16.16    \nframe=   99 fps=5.9 q=51.0 size=       1KiB time=00:00:01.98 bitrate=   2.6kbits/s speed=0.119x elapsed=0:00:16.70    \nframe=  103 fps=6.0 q=52.0 size=       1KiB time=00:00:02.06 bitrate=   2.5kbits/s speed=0.12x elapsed=0:00:17.23    \nframe=  105 fps=5.9 q=52.0 size=       1KiB time=00:00:02.10 bitrate=   2.4kbits/s speed=0.118x elapsed=0:00:17.76    \nframe=  109 fps=6.0 q=52.0 size=       1KiB time=00:00:02.18 bitrate=   2.3kbits/s speed=0.119x elapsed=0:00:18.28    \nframe=  111 fps=5.9 q=53.0 size=       1KiB time=00:00:02.22 bitrate=   2.3kbits/s speed=0.118x elapsed=0:00:18.81    \nframe=  114 fps=5.9 q=53.0 size=       1KiB time=00:00:02.28 bitrate=   2.2kbits/s speed=0.118x elapsed=0:00:19.33    \nframe=  117 fps=5.9 q=53.0 size=       1KiB time=00:00:02.34 bitrate=   2.2kbits/s speed=0.118x elapsed=0:00:19.86    \nframe=  120 fps=5.9 q=52.0 size=       1KiB time=00:00:02.40 bitrate=   2.1kbits/s speed=0.118x elapsed=0:00:20.40    \nframe=  123 fps=5.9 q=52.0 size=       1KiB time=00:00:02.46 bitrate=   2.1kbits/s speed=0.117x elapsed=0:00:20.93    \nframe=  126 fps=5.9 q=53.0 size=       1KiB time=00:00:02.52 bitrate=   2.0kbits/s speed=0.117x elapsed=0:00:21.48    \nframe=  129 fps=5.9 q=40.0 size=       1KiB time=00:00:02.58 bitrate=   2.0kbits/s speed=0.117x elapsed=0:00:22.00    \nframe=  133 fps=5.9 q=52.0 size=    1280KiB time=00:00:02.66 bitrate=3942.0kbits/s speed=0.118x elapsed=0:00:22.52    \nframe=  136 fps=5.9 q=52.0 size=    1280KiB time=00:00:02.72 bitrate=3855.1kbits/s speed=0.118x elapsed=0:00:23.06    \nframe=  140 fps=5.9 q=51.0 size=    1280KiB time=00:00:02.80 bitrate=3744.9kbits/s speed=0.119x elapsed=0:00:23.62    \nframe=  143 fps=5.9 q=51.0 size=    1280KiB time=00:00:02.86 bitrate=3666.3kbits/s speed=0.118x elapsed=0:00:24.19    \nframe=  146 fps=5.9 q=51.0 size=    1280KiB time=00:00:02.92 bitrate=3591.0kbits/s speed=0.118x elapsed=0:00:24.73    \nframe=  149 fps=5.9 q=51.0 size=    1280KiB time=00:00:02.98 bitrate=3518.7kbits/s speed=0.118x elapsed=0:00:25.25    \nframe=  152 fps=5.9 q=52.0 size=    1280KiB time=00:00:03.04 bitrate=3449.3kbits/s speed=0.118x elapsed=0:00:25.79    \nframe=  155 fps=5.9 q=52.0 size=    1280KiB time=00:00:03.10 bitrate=3382.5kbits/s speed=0.118x elapsed=0:00:26.34    \nframe=  158 fps=5.9 q=52.0 size=    1280KiB time=00:00:03.16 bitrate=3318.3kbits/s speed=0.118x elapsed=0:00:26.88    \nframe=  162 fps=5.9 q=51.0 size=    1280KiB time=00:00:03.24 bitrate=3236.3kbits/s speed=0.118x elapsed=0:00:27.41    \nframe=  165 fps=5.9 q=39.0 size=    1280KiB time=00:00:03.30 bitrate=3177.5kbits/s speed=0.118x elapsed=0:00:27.96    \nframe=  169 fps=5.9 q=50.0 size=    1280KiB time=00:00:03.38 bitrate=3102.3kbits/s speed=0.119x elapsed=0:00:28.50    \nframe=  172 fps=5.9 q=50.0 size=    1280KiB time=00:00:03.44 bitrate=3048.2kbits/s speed=0.118x elapsed=0:00:29.04    \nframe=  175 fps=5.9 q=50.0 size=    1280KiB time=00:00:03.50 bitrate=2995.9kbits/s speed=0.118x elapsed=0:00:29.58    \nframe=  178 fps=5.9 q=49.0 size=    1280KiB time=00:00:03.56 bitrate=2945.4kbits/s speed=0.118x elapsed=0:00:30.11    \nframe=  182 fps=5.9 q=49.0 size=    1280KiB time=00:00:03.64 bitrate=2880.7kbits/s speed=0.119x elapsed=0:00:30.65    \nframe=  184 fps=5.9 q=49.0 size=    1280KiB time=00:00:03.68 bitrate=2849.4kbits/s speed=0.118x elapsed=0:00:31.18    \nframe=  188 fps=5.9 q=50.0 size=    1280KiB time=00:00:03.76 bitrate=2788.8kbits/s speed=0.119x elapsed=0:00:31.72    \nframe=  191 fps=5.9 q=50.0 size=    1280KiB time=00:00:03.82 bitrate=2745.0kbits/s speed=0.118x elapsed=0:00:32.26    \nframe=  194 fps=5.9 q=51.0 size=    1280KiB time=00:00:03.88 bitrate=2702.5kbits/s speed=0.118x elapsed=0:00:32.81    \nframe=  197 fps=5.9 q=51.0 size=    1280KiB time=00:00:03.94 bitrate=2661.4kbits/s speed=0.118x elapsed=0:00:33.35    \nframe=  200 fps=5.9 q=51.0 size=    1280KiB time=00:00:04.00 bitrate=2621.4kbits/s speed=0.118x elapsed=0:00:33.88    \nframe=  204 fps=5.9 q=51.0 size=    1280KiB time=00:00:04.08 bitrate=2570.0kbits/s speed=0.119x elapsed=0:00:34.41    \nframe=  206 fps=5.9 q=51.0 size=    1280KiB time=00:00:04.12 bitrate=2545.1kbits/s speed=0.118x elapsed=0:00:34.95    \nframe=  210 fps=5.9 q=51.0 size=    1280KiB time=00:00:04.20 bitrate=2496.6kbits/s speed=0.118x elapsed=0:00:35.47    \nframe=  213 fps=5.9 q=39.0 size=    1280KiB time=00:00:04.26 bitrate=2461.4kbits/s speed=0.118x elapsed=0:00:35.99    \nframe=  217 fps=5.9 q=52.0 size=    1280KiB time=00:00:04.34 bitrate=2416.1kbits/s speed=0.119x elapsed=0:00:36.52    \nframe=  219 fps=5.9 q=36.0 size=    1280KiB time=00:00:04.38 bitrate=2394.0kbits/s speed=0.118x elapsed=0:00:37.08    \nframe=  222 fps=5.9 q=51.0 size=    1280KiB time=00:00:04.44 bitrate=2361.7kbits/s speed=0.118x elapsed=0:00:37.60    \nframe=  226 fps=5.9 q=51.0 size=    1280KiB time=00:00:04.52 bitrate=2319.9kbits/s speed=0.119x elapsed=0:00:38.12    \nframe=  226 fps=5.8 q=51.0 size=    1280KiB time=00:00:04.52 bitrate=2319.9kbits/s speed=0.117x elapsed=0:00:38.65    \nframe=  226 fps=5.8 q=51.0 size=    1280KiB time=00:00:04.52 bitrate=2319.9kbits/s speed=0.115x elapsed=0:00:39.18    \nframe=  226 fps=5.7 q=51.0 size=    1280KiB time=00:00:04.52 bitrate=2319.9kbits/s speed=0.114x elapsed=0:00:39.72    \nframe=  226 fps=5.6 q=51.0 size=    1280KiB time=00:00:04.52 bitrate=2319.9kbits/s speed=0.112x elapsed=0:00:40.23    \nframe=  226 fps=5.5 q=51.0 size=    1280KiB time=00:00:04.52 bitrate=2319.9kbits/s speed=0.111x elapsed=0:00:40.75    \nframe=  226 fps=5.5 q=51.0 size=    1280KiB time=00:00:04.52 bitrate=2319.9kbits/s speed=0.109x elapsed=0:00:41.28    \nframe=  226 fps=5.4 q=51.0 size=    1280KiB time=00:00:04.52 bitrate=2319.9kbits/s speed=0.108x elapsed=0:00:41.83    \n[out#0/webm @ 000001d74e509a00] video:2631KiB audio:0KiB subtitle:0KiB other streams:0KiB global headers:0KiB muxing overhead: 0.092225%\nframe=  250 fps=6.0 q=55.0 Lsize=    2634KiB time=00:00:05.00 bitrate=4315.2kbits/s speed=0.119x elapsed=0:00:41.92    \n",
  "seconds": 42.21779155731201,
  "probe_out": {}
}